<svg height="464pt" viewBox="0 -24 464 464" width="464pt" xmlns="http://www.w3.org/2000/svg"><path d="m96 72h280v48h-280zm0 0" fill="#8ac03f"/><path d="m342.246094 410.136719-12.492188-10c12.800782-15.859375 20.457032-35.25 21.941406-55.578125.199219-2.789063.304688-5.597656.304688-8.558594-1.707031-39.828125-6.386719-79.476562-14-118.609375l15.753906-2.78125c7.785156 40.046875 12.546875 80.625 14.246094 121.390625 0 3.3125-.113281 6.550781-.34375 9.710938-1.714844 23.5625-10.578125 46.035156-25.410156 64.425781zm0 0" fill="#ccdde6"/><path d="m368 8h48v176h-48zm0 0" fill="#7da632"/><path d="m416 24h48v144h-48zm0 0" fill="#89b33b"/><path d="m440 56h24v16h-24zm0 0" fill="#c6db5b"/><path d="m440 88h24v16h-24zm0 0" fill="#c6db5b"/><path d="m440 120h24v16h-24zm0 0" fill="#c6db5b"/><path d="m112 184h-48v-176h48zm0 0" fill="#7da632"/><path d="m64 168h-48v-144h48zm0 0" fill="#89b33b"/><path d="m16 120h24v16h-24zm0 0" fill="#c6db5b"/><path d="m16 88h24v16h-24zm0 0" fill="#c6db5b"/><path d="m16 56h24v16h-24zm0 0" fill="#c6db5b"/><path d="m304 168 16-32v-72c0-8.835938-7.164062-16-16-16s-16 7.164062-16 16v-24c0-8.835938-7.164062-16-16-16s-16 7.164062-16 16v-24c0-8.835938-7.164062-16-16-16s-16 7.164062-16 16v16c0-8.835938-7.164062-16-16-16s-16 7.164062-16 16v40c-22.089844 0-40 17.910156-40 40v.800781c-.003906 14.355469 7.6875 27.613281 20.152344 34.734375l35.847656 20.464844v113.601562c-27.644531-12.386718-57.71875-18.402343-88-17.601562-88 0-120 48-120 48v104h246.28125c42.066406.542969 77.507812-31.285156 81.480469-73.167969.160156-2.222656.238281-4.496093.238281-6.832031 0-56-24-168-24-168zm0 0" fill="#f6bf9b"/><path d="m195.886719 322.503906c-23.140625-12.957031-49.378907-19.355468-75.886719-18.503906-15.429688-.148438-30.78125 2.199219-45.464844 6.953125l-5.070312-15.199219c16.316406-5.289062 33.382812-7.910156 50.535156-7.753906 29.394531-.742188 58.449219 6.445312 84.113281 20.800781zm0 0" fill="#f7d299"/><path d="m44.664062 326.0625-9.335937-12.992188c5.417969-3.882812 11.140625-7.324218 17.113281-10.285156l7.117188 14.328125c-5.195313 2.578125-10.179688 5.570313-14.894532 8.949219zm0 0" fill="#f7d299"/><g fill="#e9937c"><path d="m192 72c4.417969 0 8 3.582031 8 8v16.335938c0 4.417968-3.582031 8-8 8s-8-3.582032-8-8v-16.335938c0-4.417969 3.582031-8 8-8zm0 0"/><path d="m224 24c4.417969 0 8 3.582031 8 8v16.335938c0 4.417968-3.582031 8-8 8s-8-3.582032-8-8v-16.335938c0-4.417969 3.582031-8 8-8zm0 0"/><path d="m256 32c4.417969 0 8 3.582031 8 8v16.335938c0 4.417968-3.582031 8-8 8s-8-3.582032-8-8v-16.335938c0-4.417969 3.582031-8 8-8zm0 0"/><path d="m288 40c4.417969 0 8 3.582031 8 8v16.335938c0 4.417968-3.582031 8-8 8s-8-3.582032-8-8v-16.335938c0-4.417969 3.582031-8 8-8zm0 0"/></g></svg>