<svg height="480pt" viewBox="0 -88 480 480" width="480pt" xmlns="http://www.w3.org/2000/svg"><path d="m312 8h80c44.183594 0 80 35.816406 80 80v80c0 44.183594-35.816406 80-80 80h-160v-160c0-44.183594 35.816406-80 80-80zm0 0" fill="#e94f4f"/><path d="m8 200h224v48h-224zm0 0" fill="#ffb531"/><path d="m24 296c-8.835938 0-16-7.164062-16-16v-32h32v32c0 8.835938-7.164062 16-16 16zm0 0" fill="#e0e0de"/><g fill="#f57e00"><path d="m32 200h16v24h-16zm0 0"/><path d="m64 200h16v24h-16zm0 0"/><path d="m96 200h16v24h-16zm0 0"/><path d="m128 200h16v24h-16zm0 0"/><path d="m160 200h16v24h-16zm0 0"/><path d="m192 200h16v24h-16zm0 0"/></g><path d="m235.671875 64h-43.671875v96h40v-72c-.003906-8.140625 1.234375-16.234375 3.671875-24zm0 0" fill="#3d4d63"/><path d="m408.304688 9.671875c-35.402344 136.152344-113.351563 204.519531-175.503907 238.328125h159.199219c44.183594 0 80-35.816406 80-80v-80c.003906-37.902344-26.589844-70.605469-63.695312-78.328125zm0 0" fill="#e04646"/><path d="m432 128c0 44.183594-35.816406 80-80 80s-80-35.816406-80-80 35.816406-80 80-80 80 35.816406 80 80zm0 0" fill="#ccccca"/><path d="m408 128c0 30.929688-25.070312 56-56 56s-56-25.070312-56-56 25.070312-56 56-56 56 25.070312 56 56zm0 0" fill="#d6d6d4"/><path d="m331.265625 93.785156-8.3125-13.671875c5.476563-3.335937 11.492187-5.691406 17.773437-6.96875l3.203126 15.671875c-4.476563.914063-8.761719 2.597656-12.664063 4.96875zm0 0" fill="#ebebe9"/><path d="m301.238281 151.6875c-9.804687-21.058594-5.605469-45.988281 10.5625-62.671875l11.480469 11.144531c-11.554688 11.914063-14.554688 29.722656-7.539062 44.761719zm0 0" fill="#ebebe9"/><path d="m208 248h24v-48zm0 0" fill="#f7a116"/><path d="m392 0h-80c-36.210938.0585938-68.699219 22.273438-81.886719 56h-38.113281c-4.417969 0-8 3.582031-8 8v96c0 4.417969 3.582031 8 8 8h32v24h-216c-4.417969 0-8 3.582031-8 8v80c0 13.253906 10.746094 24 24 24s24-10.746094 24-24v-24h344c48.578125-.058594 87.941406-39.421875 88-88v-80c-.058594-48.578125-39.421875-87.9414062-88-88zm-360 280c0 4.417969-3.582031 8-8 8s-8-3.582031-8-8v-24h16zm192-40h-208v-32h16v16h16v-16h16v16h16v-16h16v16h16v-16h16v16h16v-16h16v16h16v-16h16v16h16v-16h16zm.863281-163.648438c-.144531 1.046876-.328125 2.082032-.429687 3.144532-.273438 2.816406-.433594 5.65625-.433594 8.503906v64h-24v-80h25.464844c-.273438 1.441406-.410156 2.902344-.601563 4.351562zm239.136719 91.648438c-.042969 39.746094-32.253906 71.957031-72 72h-152v-152c.027344-3.261719.273438-6.519531.734375-9.753906.113281-.796875.234375-1.597656.363281-2.335938 5.613282-34.730468 35.722656-60.171875 70.902344-59.910156h80c39.746094.042969 71.957031 32.253906 72 72zm0 0"/><path d="m352 40c-48.601562 0-88 39.398438-88 88s39.398438 88 88 88 88-39.398438 88-88c-.058594-48.578125-39.421875-87.941406-88-88zm0 160c-39.765625 0-72-32.234375-72-72s32.234375-72 72-72 72 32.234375 72 72c-.042969 39.746094-32.253906 71.957031-72 72zm0 0"/><path d="m322.953125 80.113281 8.3125 13.671875c3.902344-2.371094 8.1875-4.054687 12.664063-4.96875l-3.203126-15.671875c-6.28125 1.277344-12.296874 3.632813-17.773437 6.96875zm0 0"/><path d="m311.800781 89.015625c-16.167969 16.683594-20.367187 41.613281-10.5625 62.671875l14.503907-6.765625c-7.015626-15.039063-4.015626-32.847656 7.539062-44.761719zm0 0"/></svg>